<?xml version="1.0" standalone="no"?>
<!DOCTYPE svg PUBLIC "-//W3C//DTD SVG 20010904//EN"
 "http://www.w3.org/TR/2001/REC-SVG-20010904/DTD/svg10.dtd">
<svg version="1.0" xmlns="http://www.w3.org/2000/svg"
 width="700.000000pt" height="700.000000pt" viewBox="0 0 700.000000 700.000000"
 preserveAspectRatio="xMidYMid meet">
<metadata>
Created by potrace 1.14, written by Peter Selinger 2001-2017
</metadata>
<g transform="translate(0.000000,700.000000) scale(0.100000,-0.100000)"
fill="#000000" stroke="none">
<path d="M3310 6994 c-412 -36 -654 -83 -960 -190 -690 -239 -1295 -697 -1717
-1299 -506 -722 -722 -1629 -596 -2500 8 -60 19 -118 22 -129 6 -16 32 -6 232
96 533 272 861 482 1546 991 545 404 706 510 988 653 410 206 748 285 1170
271 284 -9 474 -44 765 -139 161 -53 190 -66 223 -98 32 -33 37 -44 37 -83 0
-36 -7 -54 -32 -86 -128 -159 -172 -217 -225 -296 -167 -251 -281 -535 -336
-840 -29 -164 -32 -552 -4 -720 70 -422 203 -684 422 -835 236 -162 613 -238
1047 -211 168 10 482 50 553 69 36 10 77 75 186 292 437 877 487 1887 137
2807 -202 533 -551 1030 -983 1402 -534 459 -1174 740 -1885 827 -120 14 -497
26 -590 18z"/>
<path d="M3646 4554 c-216 -29 -443 -99 -661 -204 -246 -119 -460 -260 -977
-643 -189 -139 -404 -296 -478 -349 -393 -278 -796 -518 -1220 -725 -96 -47
-176 -87 -177 -88 -5 -3 94 -291 130 -375 47 -114 125 -280 130 -280 3 0 60
13 128 29 529 125 1081 122 1599 -9 192 -49 396 -124 623 -229 49 -23 90 -41
91 -41 2 0 6 75 10 167 35 826 319 1531 878 2178 111 128 354 368 481 474 61
51 84 77 75 81 -52 29 -462 38 -632 14z"/>
<path d="M4188 3752 c-374 -341 -700 -809 -853 -1226 -106 -288 -172 -725
-151 -988 l8 -85 296 -166 c602 -335 1005 -530 1536 -743 244 -97 195 -102
411 41 236 157 449 338 633 538 129 141 161 181 136 174 -34 -10 -126 -26
-249 -44 -152 -22 -550 -24 -670 -5 -301 50 -557 162 -724 316 -51 48 -153
182 -205 271 -96 166 -177 425 -212 680 -25 184 -25 530 -1 680 31 189 91 399
161 564 27 63 28 91 4 91 -7 0 -61 -44 -120 -98z"/>
<path d="M910 1505 c-8 -2 -68 -9 -133 -15 -64 -7 -120 -16 -122 -20 -7 -11
133 -189 260 -330 320 -356 755 -665 1210 -858 745 -317 1561 -366 2353 -142
141 40 280 87 295 100 4 3 -57 23 -135 44 -293 79 -668 212 -1043 371 -61 26
-333 156 -605 290 -741 365 -957 448 -1340 519 -186 34 -334 46 -545 45 -99
-1 -187 -3 -195 -4z"/>
</g>
</svg>
