<?xml version="1.0" encoding="UTF-8"?><svg id="Layer_2" xmlns="http://www.w3.org/2000/svg" viewBox="0 0 172.26 194.73"><g id="Layer_1-2"><path d="M119.17,131.18c-7.88,.22-14.7-2.67-20.78-7.28-3.78-2.86-7.24-6.16-10.71-9.4-1.29-1.2-2-1.29-3.27,.05-4.58,4.86-9.62,9.21-15.51,12.44-7.36,4.04-15.2,5.52-23.4,3.38-12.03-3.14-19.51-13.89-20.29-23.81-.52-6.6,.98-12.6,3.75-18.39,9.24-19.29,18.48-38.57,27.86-57.79,3.21-6.58,6.55-13.12,10.32-19.39,8.05-13.39,25.69-14.83,35.71-2.85,2.91,3.48,4.9,7.78,7.05,11.84,3.67,6.94,7.2,13.96,10.66,21.01,4.39,8.95,8.68,17.95,12.96,26.95,3.62,7.64,7.34,15.24,10.69,22.99,3.57,8.25,4.16,16.7-.09,24.95-5.2,10.1-13.59,15.19-24.95,15.28Zm20.67-26.96c-.52-2.56-.63-5.3-1.64-7.65-3.72-8.66-7.68-17.23-11.67-25.77-3.41-7.31-6.93-14.58-10.52-21.8-4.87-9.81-9.8-19.59-14.85-29.3-1.38-2.65-2.98-5.31-4.99-7.49-3.11-3.37-7.11-4.97-11.85-4.35-5.95,.78-9.57,4.55-12.14,9.51-5.49,10.6-11.02,21.17-16.23,31.9-7.29,15.01-14.31,30.16-21.41,45.26-2.08,4.43-2.89,9.05-1.71,13.89,3.29,13.47,16.63,18.9,28.67,14.17,7.17-2.82,12.71-8.04,17.98-13.54,1.2-1.25,1.14-2.16,.1-3.48-5.51-6.96-10.36-14.33-13.37-22.77-2.09-5.87-3-11.86-1.61-18.01,2.25-9.93,10.97-16.36,21.78-16.21,12.74,.18,21.79,9.33,21.74,22.07-.03,6.48-1.83,12.6-4.93,18.18-3.19,5.73-6.95,11.14-10.6,16.6-1.02,1.52-1.28,2.52,.24,3.84,2.96,2.58,5.62,5.52,8.69,7.95,5.87,4.66,12.33,7.57,20.19,6.86,10.18-.92,18.43-10.58,18.12-19.88Zm-53.92-2.58c4.68-6.38,9.09-12.06,11.68-18.8,1.32-3.42,2.58-7.03,2.91-10.65,.8-8.87-4.97-16.06-15.11-15.86-8.87,.18-14.74,7.58-13.75,16.23,.76,6.64,3.44,12.47,6.84,18.02,2.23,3.64,4.76,7.1,7.43,11.05Z" fill="#ff385c"/><path d="M148.47,192.31c-1.03,1.51-5.55,2.7-7.09,1.62-.49-.34-.64-1.43-.64-2.18-.04-12.93-.06-25.86-.01-38.8,.02-5.66-.88-4.67,4.98-4.83,1.63-.05,2.13,.65,2.12,2.15-.03,4.16-.03,8.32,.02,12.48,.01,.78,.33,1.56,.51,2.35,.81-.26,1.68-.42,2.43-.8,4.13-2.08,8.2-1.81,12.36,0,3.11,1.35,5.49,3.43,7,6.41,3.09,6.09,2.82,12.15-.97,17.81-3.65,5.46-9.19,6.87-15.35,5.99-1.85-.26-3.57-1.42-5.36-2.18Zm-.68-13.72h.02c0,1.44-.21,2.91,.07,4.29,.24,1.17,.77,2.58,1.65,3.28,4.51,3.6,9.95,2.49,13.49-1.59,2.73-3.15,2.62-8.09,.19-11.39-2.39-3.25-6.95-4.6-10.97-3.25-3.3,1.11-4.44,2.7-4.44,6.16,0,.83,0,1.66,0,2.49Z" fill="#ff385c"/><path d="M80.18,192.1c-1.02,1.75-5.34,2.94-6.93,1.82-.5-.35-.66-1.43-.66-2.18-.04-9.99-.03-19.98-.04-29.97,0-3.78,.08-7.57-.03-11.35-.06-1.83,.64-2.36,2.38-2.31,5.43,.15,4.62-.7,4.68,4.72,.05,4.07,0,8.13,0,12.55,10.21-4.85,18.13-2.76,23.01,7.18,3.04,6.19,.9,14.05-4.22,18.67-4.71,4.24-11.38,4.59-18.2,.87Zm6.56-22.55c-.45,0-.91,0-1.36,0-3.32,.04-5.78,2.5-5.78,5.8,0,2.5-.09,5,.02,7.49,.04,.92,.25,2.13,.85,2.68,2.11,1.92,4.58,3.22,7.6,2.75,5.41-.84,8.87-5.01,8.54-10.26-.32-5.15-4.19-8.46-9.87-8.46Z" fill="#ff385c"/><path d="M24.1,191.81c-7.64,5.52-16.93,2.35-20.49-2.47-4.89-6.62-4.78-14.88,.18-21.13,3.89-4.9,13.51-7.79,19.69-2.69,1.4-1.74,4.64-2.74,6.89-1.85,.55,.22,1.02,1.38,1.03,2.11,.08,6.04,.05,12.09,.05,18.14,0,2.49-.12,5,.04,7.48,.15,2.25-.76,3.02-2.88,2.74-.59-.08-1.21-.02-1.81-.01-1.42,.02-2.94,.22-2.7-2.32Zm.24-12.91c0-1.21-.09-2.42,.02-3.62,.21-2.41-1.14-3.84-3.06-4.8-5.07-2.54-11.01-.5-13.28,4.36-2.13,4.56-.42,10.51,5.23,12.74,5.81,2.3,11.09-.99,11.09-7.11,0-.53,0-1.06,0-1.58Z" fill="#ff385c"/><path d="M114.99,166.01c3.1-2.73,6.3-3.1,9.72-3.11,5.42-.02,11.15,4.78,10.89,10.65-.27,6.11-.07,12.25,0,18.38,.02,1.66-.57,2.28-2.26,2.23-5.74-.14-4.74,.66-4.81-4.8-.06-4.69,.02-9.38-.04-14.07-.04-3.27-1.65-5.43-4.39-6.12-2.57-.65-7.44,1.05-8.52,3.13-.39,.75-.45,1.74-.46,2.63-.03,5.6-.07,11.2,.03,16.79,.03,1.9-.63,2.49-2.49,2.43-5.22-.16-4.65,.62-4.65-4.56-.01-7.41,0-14.83,0-22.24,0-3.86,0-3.82,3.76-3.86,1.52-.02,2.91,0,3.2,2.52Z" fill="#ff385c"/><path d="M57.76,164.76c3.03-.67,5.74-1.33,8.47-1.86,1.44-.28,2.07,.47,2.01,1.94-.06,1.49-.01,2.98-.01,4.75-3.39-.99-6.21-.32-8.91,1.19-1.39,.78-1.94,1.88-1.92,3.52,.09,5.74-.02,11.48,.08,17.22,.03,1.87-.39,2.7-2.49,2.66-5.02-.08-5.02,.02-5.02-5.04,0-7.63,.09-15.26-.05-22.88-.04-2.27,.73-2.93,2.85-2.75,1.97,.17,4.17-.56,4.99,1.26Z" fill="#ff385c"/><path d="M44.29,178.86c0,4.38-.04,8.77,.02,13.15,.02,1.51-.41,2.18-2.05,2.15-5.78-.11-4.98,.61-5-4.89-.03-7.63,.06-15.25-.04-22.88-.03-2.12,.52-2.97,2.78-2.89,4.74,.16,4.26-.44,4.27,4.26,0,3.7,0,7.41,0,11.11h.02Z" fill="#ff385c"/><path d="M41,148.35c2.41-.03,4.92,2.55,4.92,5.05,0,2.52-2.33,4.86-4.97,4.99-2.54,.12-5.01-2.22-5.08-4.82-.07-2.54,2.53-5.18,5.14-5.21Z" fill="#ff385c"/></g></svg>