<?xml version="1.0" encoding="UTF-8"?><svg id="Layer_2" xmlns="http://www.w3.org/2000/svg" viewBox="0 0 401.5331 444.8191"><defs><style>.cls-1{fill:#ff5a5f;}</style></defs><g id="svg4"><path id="path2-9-9" class="cls-1" d="M345.0557,227.0026c-1.5999-3.8998-3.0999-7.9996-4.6998-11.4994l-7.3996-16.6992-.3-.3c-21.9988-47.9976-45.4977-96.795-70.3964-144.7925l-.9998-1.9999c-2.5001-4.6998-4.9999-9.8995-7.5996-14.6993-3.2001-5.6997-6.2997-11.7994-11.3994-17.5991-21.2035-25.8845-60.7922-25.8845-81.9958,0-4.6997,5.7997-8.1995,11.8994-11.3994,17.5991-2.4997,5.1997-4.9996,10.2995-7.5996,14.9992l-.9999,1.9999c-24.4987,47.9975-48.3974,96.795-70.3962,144.7925l-.6001,.6c-2.1998,5.1997-4.7999,10.5994-7.2997,16.3991-1.5999,3.4998-3.1997,7.2996-4.7996,11.4994-18.9055,48.1332,20.7091,98.9168,71.9964,92.2953,11.2339-1.4789,22.0513-5.2208,31.7982-10.9995,12.9991-7.2997,25.4986-17.8991,39.498-33.1983,13.9991,15.2992,26.7986,25.8986,39.4977,33.2982,12.2124,7.1682,26.0423,11.1243,40.1981,11.4994,33.8966,.1414,62.7041-24.7403,67.4964-58.2968,2.6782-11.6617,1.7722-23.8603-2.5998-34.9982v.1Zm-143.5927,16.5992c-17.1992-21.9989-28.3987-42.1978-32.1982-59.4969-1.5743-6.4103-1.9138-13.0617-1.0001-19.599,.7-5.0997,2.5998-9.5995,5.1998-13.3993,5.9998-8.6996,16.4993-14.0993,27.9985-14.0993,11.0933-.3389,21.6136,4.9214,27.9985,13.9993,2.6,3.9998,4.4997,8.3996,5.0997,13.4993,1,5.7997,.5999,12.4994-.9998,19.599-3.8,16.9991-14.9994,37.3981-32.0984,59.4969h0Zm127.3935,14.7992c-2.3121,16.7661-13.3533,31.0432-28.9986,37.4981-7.5996,3.1998-15.999,4.0999-24.1987,3.1998-7.9997-.9999-15.9992-3.5997-24.1987-8.3995-13.6143-8.4145-25.8562-18.869-36.2982-30.9984,20.9988-25.9987,33.6982-49.6975,38.4981-70.7964,2.2997-9.9995,2.5997-18.999,1.5999-27.2986-1.2486-7.8667-4.182-15.3708-8.5996-21.9988-10.2422-14.5944-27.0711-23.1401-44.8976-22.7988-18.4991,0-34.9982,8.5996-44.9977,22.6988-4.5015,6.6112-7.4107,14.1751-8.4998,22.0988-1.2999,8.3996-.9997,17.6991,1.5999,27.2986,4.7999,21.0989,17.7991,45.0977,38.4981,70.9963-10.2645,12.361-22.535,22.9076-36.298,31.1984-8.2996,4.7997-16.1992,7.2995-24.1987,8.2996-25.8925,3.3167-49.6248-14.8397-53.1974-40.698-.9998-7.9995-.3-15.9991,2.8999-24.9986,.9998-3.1998,2.4997-6.3997,4.0996-10.1995,2.1999-5.1997,4.7999-10.5995,7.2998-15.9992l.3999-.7c21.5987-47.6975,45.1975-96.395,69.6965-144.0926l.9998-1.9999c2.4997-4.7997,4.9999-9.8995,7.5995-14.6992,2.6-5.0997,5.3997-9.9995,8.9998-13.9993,13.2689-15.8394,37.6286-15.8394,50.8973,0,3.4997,3.9998,6.3995,8.8995,8.9995,13.9993,2.4999,4.7998,4.9998,9.9995,7.5996,14.6992l1,1.9999c24.3987,47.6975,47.9974,96.3951,69.9965,144.0926l.2998,.3c2.6,5.1997,4.7999,10.9994,7.2998,15.9991,1.5999,3.8998,3.1997,6.9997,4.1996,10.2995,1.9001,8.9995,2.8998,16.9991,1.9001,24.9987h-.0001Z"/><path id="path2-9-9-3" class="cls-1" d="M33.9538,444.8153c-9.334,.1367-18.223-3.9816-24.1538-11.1901C3.2208,426.0425-.2707,416.2657,.0164,406.2307c-.1007-10.2533,3.5037-20.1982,10.1505-28.0059,6.2238-7.2956,15.3593-11.4602,24.9485-11.3736,9.0613-.248,17.6113,4.1887,22.6249,11.7405l.6115-9.6003h17.8555v73.8672h-17.9167l-.6115-10.7621c-5.1698,8.0647-14.1471,12.8773-23.7252,12.7188Zm4.6473-17.6107c3.5465,0,6.6647-.9783,9.6-2.7516,2.6906-1.9567,4.8918-4.525,6.6042-7.6436,1.5285-3.1186,2.3237-6.8486,2.3237-11.0067,.4848-7.3467-2.9292-14.407-8.9889-18.5891-5.8391-3.6381-13.2392-3.6381-19.0784,0-2.6905,1.9567-4.892,4.525-6.6039,7.6436-1.6172,3.4393-2.4127,7.2073-2.3237,11.0067-.485,7.3467,2.9292,14.407,8.9888,18.5891,2.8739,1.7733,5.9925,2.7516,9.4782,2.7516h0Zm68.1803-78.1475c0,2.1402-.3672,4.0969-1.3453,5.6868-.9786,1.5287-2.3236,2.9351-4.097,3.9135-1.7734,.9784-3.6689,1.3452-5.6257,1.3452s-3.9135-.3669-5.6868-1.3452c-1.6772-.9337-3.0876-2.2809-4.097-3.9135-.947-1.7419-1.4113-3.7052-1.3453-5.6868,0-2.2013,.4281-4.1581,1.3453-5.6868,.9783-1.8344,2.3848-2.9351,4.097-3.9135,1.7733-.9784,3.669-1.4064,5.6868-1.4064,3.9595-.0914,7.6754,1.906,9.7838,5.2588,.8898,1.7828,1.3306,3.756,1.2843,5.748Zm-20.7906,93.5569v-73.7449h19.4453v73.8672h-19.5065l.0612-.1223Zm71.4211-54.422v.2446c-.9172-.428-2.14-.6115-3.0572-.7949-1.2231-.2446-2.2015-.2446-3.3635-.2446-5.442,0-9.539,1.5899-12.2294,4.8919-2.9349,3.3632-4.2804,8.0716-4.2804,14.1252v36.261h-19.5063v-73.8672h17.9164l.6117,11.1902c1.9567-3.9135,4.2803-6.8486,7.5823-9.05,3.2845-2.1389,7.1512-3.207,11.0679-3.0574,1.4065,0,2.7515,.1223,3.9134,.3669,.6117,.1835,.9786,.1835,1.3453,.3669v19.5675Zm7.827,54.422v-104.0745h19.4451v39.7464c2.7517-3.5466,5.8702-6.2983,9.7838-8.4385,12.7536-6.253,28.1315-2.9397,37.1782,8.0104,6.5936,7.5983,10.0865,17.3998,9.7838,27.4556,.1007,10.2533-3.5039,20.1982-10.1505,28.0059-6.2241,7.2956-15.3593,11.4603-24.9486,11.3736-9.0615,.248-17.6111-4.1887-22.625-11.7405l-.6114,9.6003-17.8553,.1835v-.1224Zm37.6061-15.4094c3.4856,0,6.6042-.9783,9.5391-2.7516,2.6908-1.9567,4.8921-4.525,6.6042-7.6436,1.5898-3.1186,2.3236-6.8486,2.3236-11.0067,0-4.0969-.7338-7.827-2.3236-10.9456-1.6058-3.0071-3.8618-5.6183-6.6042-7.6436-5.8388-3.6381-13.2391-3.6381-19.0782,0-2.7516,1.9567-4.8918,4.525-6.6652,7.6436-1.6168,3.4393-2.4124,7.2073-2.3236,11.0067-.4848,7.3467,2.9292,14.407,8.9888,18.5891,2.8741,1.7733,5.9926,2.7516,9.5391,2.7516h0Zm45.9225,15.4706v-73.8672h17.9164l.6117,9.6003c4.5846-7.4938,12.8688-11.9166,21.6465-11.557,10.0774-.174,19.2793,5.7036,23.3587,14.9202,2.1401,4.6473,3.3018,10.3952,3.3018,16.8158v44.2714h-19.5063v-41.7031c0-5.1365-1.1617-9.1722-3.4854-12.1685-2.3236-2.9351-5.5035-4.525-9.539-4.525-2.935,0-5.5035,.6115-7.7659,1.9567-2.1404,1.4064-3.9134,3.1797-5.2587,5.6868-1.3604,2.5343-2.0348,5.3799-1.9568,8.255v42.3146h-19.3229Zm76.5576,0v-104.1967h19.5063v39.7464c5.3572-7.231,13.8092-11.5138,22.8085-11.557,9.3338-.1367,18.2227,3.9816,24.1536,11.1902,6.5467,7.5978,10.0146,17.3695,9.7225,27.3944,.1068,10.2543-3.4988,20.201-10.1504,28.006-6.2239,7.2956-15.3594,11.4602-24.9486,11.3736-9.0613,.248-17.6113-4.1887-22.6252-11.7405l-.55,9.6003-17.9166,.1833Zm37.7897-15.4705c3.5466,0,6.6652-.9783,9.5391-2.7516,2.7516-1.9567,4.892-4.525,6.6652-7.6436,1.5287-3.1186,2.3237-6.8486,2.3237-11.0067,.4848-7.3467-2.9294-14.4071-8.989-18.5891-5.8391-3.6381-13.239-3.6381-19.0782,0-2.6905,1.9567-4.8918,4.525-6.604,7.6436-1.7068,3.4085-2.507,7.1991-2.3237,11.0067-.485,7.3467,2.9292,14.4071,8.989,18.5891,2.8737,1.7733,5.8092,2.7516,9.4779,2.7516h0Z"/></g></svg>