<?xml version="1.0" encoding="UTF-8"?><svg id="Layer_2" xmlns="http://www.w3.org/2000/svg" viewBox="0 0 52 43.64"><g id="Layer_1-2"><g><g><rect x="1.5" y="1.5" width="49" height="40.64" rx="5.89" ry="5.89" fill="#fff" stroke="#FDAA5B"/><path d="M44.61,3c2.42,0,4.39,1.97,4.39,4.39v28.86c0,2.42-1.97,4.39-4.39,4.39H7.39c-2.42,0-4.39-1.97-4.39-4.39V7.39c0-2.42,1.97-4.39,4.39-4.39H44.61m0-3H7.39C3.31,0,0,3.31,0,7.39v28.86c0,4.08,3.31,7.39,7.39,7.39H44.61c4.08,0,7.39-3.31,7.39-7.39V7.39c0-4.08-3.31-7.39-7.39-7.39h0Z"/></g><path d="M1.54,7.43l20.11,14.51c2.6,1.87,6.1,1.87,8.7,0L50.46,7.43" fill="none" stroke="#FDAA5B" stroke-linecap="round" stroke-linejoin="round" stroke-width="3"/></g></g></svg>