<svg xmlns="http://www.w3.org/2000/svg" viewBox="0 0 82.1 82.11"><g id="Layer_2" data-name="Layer 2"><g id="Layer_1-2" data-name="Layer 1"><path d="M50.49,28.84c-7.26,5.85-14.62,14.63-16.62,26.93a40.74,40.74,0,0,0-.5,7.24,47.3,47.3,0,0,0-7.06-2.9A39.29,39.29,0,0,0,4.62,60a41.09,41.09,0,0,1-3.09-7.78,103.23,103.23,0,0,0,13.84-7.74c2.89-1.92,5.48-3.86,8-5.74,7.46-5.58,13.35-10,21.83-10.27H46a24.57,24.57,0,0,1,2.7.15h0C49.34,28.66,49.91,28.74,50.49,28.84Z" fill="#3fa3d9"/><path d="M73,66.85a41.2,41.2,0,0,1-11.67,9.91c-2.17-.82-4.32-1.68-6.43-2.61-3.17-1.37-6.26-2.85-9.29-4.47-2.8-1.44-5.49-3-8.23-4.56a30,30,0,0,1,.3-7.21c.08-.53.18-1,.29-1.56,0-.26.11-.51.17-.76s.13-.51.2-.76.14-.5.22-.75.15-.5.23-.74.17-.5.26-.74c.28-.78.59-1.53.93-2.28l.27-.57c.23-.47.46-.93.71-1.38.12-.23.25-.46.38-.68.26-.45.52-.89.8-1.33s.38-.59.59-.89.37-.56.58-.83.53-.74.83-1.11.35-.46.54-.69.54-.67.83-1,.67-.78,1-1.16l.12-.13c.28-.31.57-.62.88-.92.46-.48.94-.94,1.43-1.4s.76-.71,1.15-1l.26-.23a.3.3,0,0,1,.44.37q-.45,1-.81,2c-.09.23-.16.45-.24.68s-.15.45-.22.68-.14.46-.2.69c-.13.46-.25.92-.35,1.38-.05.22-.1.44-.14.66A25.28,25.28,0,0,0,48.36,49c.15,5.3,1.33,11.19,5.43,15C58.72,68.1,65.93,68.3,73,66.85Z" fill="#19a3de"/><path d="M43.13,74.85l-.36-.15c.83.48,1.65,1,2.46,1.4a80.72,80.72,0,0,0,8.3,4.07c.88-.27,1.73-.58,2.58-.91A85.89,85.89,0,0,1,43.13,74.85Z" fill="#19a3de"/><path d="M56.11,79.26c-.85.33-1.7.64-2.58.91a41.08,41.08,0,0,1-46-15.36,35,35,0,0,1,16.79,1.38C30.76,68.43,36.46,72,42.77,74.7l.36.15A85.89,85.89,0,0,0,56.11,79.26Z" fill="#29abe2"/><path d="M82.1,41.06a40.82,40.82,0,0,1-5.95,21.3l-.25.4C66,64.71,58.46,63.62,55,59.48c-2.22-2.67-3.29-7.21-3.42-11.47a29,29,0,0,1,.11-3.4,24.66,24.66,0,0,1,.66-3.8c.11-.41.22-.8.34-1.18s.27-.84.42-1.24c.22-.6.46-1.19.72-1.73s.37-.81.57-1.19.25-.48.37-.7a25.86,25.86,0,0,1,1.45-2.32l.33-.46c.16-.24.34-.48.51-.69s.15-.21.23-.3c.37-.48.73-.89,1.06-1.26l.15-.17a.94.94,0,0,0,.09-.12A1.47,1.47,0,0,0,58,27.2l-.21-.08c-.38-.16-.77-.31-1.19-.45s-.72-.25-1.09-.37l-.19-.06c-.57-.18-1.15-.35-1.77-.51q-.5-.14-1-.24a28.74,28.74,0,0,0-3.44-.56,29.6,29.6,0,0,0-3-.16H45.1c-12.47.42-19.88,8.85-31.4,16.52a101.09,101.09,0,0,1-13,7.32A41.85,41.85,0,0,1,0,41.06,41.07,41.07,0,0,1,32.6.87l.49-.09A43.79,43.79,0,0,1,37.86.13L39.25.05,40,0l1.06,0A41.05,41.05,0,0,1,82.1,41.06Z" fill="#ff7bac"/><path d="M75.9,62.76c-.36.59-.74,1.16-1.13,1.71-.57.82-1.16,1.61-1.78,2.38C65.93,68.3,58.72,68.1,53.79,64c-4.1-3.77-5.28-9.66-5.43-15a25.28,25.28,0,0,1,.49-5.62c0-.22.09-.44.14-.66.1-.46.22-.92.35-1.38.06-.23.13-.46.2-.69s.14-.46.22-.68.15-.45.24-.68q.36-1,.81-2a.3.3,0,0,0-.44-.37l-.26.23c-.39.34-.77.68-1.15,1s-1,.92-1.43,1.4c-.31.3-.6.61-.88.92l-.12.13c-.36.38-.7.76-1,1.16s-.57.66-.83,1-.38.46-.54.69-.57.74-.83,1.11-.4.55-.58.83-.4.59-.59.89-.54.88-.8,1.33c-.13.22-.26.45-.38.68-.25.45-.48.91-.71,1.38l-.27.57c-.34.75-.65,1.5-.93,2.28-.09.24-.18.49-.26.74s-.16.49-.23.74-.16.5-.22.75-.14.5-.2.76-.12.5-.17.76c-.11.51-.21,1-.29,1.56a30,30,0,0,0-.3,7.21c2.74,1.52,5.43,3.12,8.23,4.56,3,1.62,6.12,3.1,9.29,4.47,2.11.93,4.26,1.79,6.43,2.61-.24.14-.48.28-.73.41-.51.27-1,.54-1.54.79h0c-.64.32-1.28.61-1.93.89l-1,.41a85.89,85.89,0,0,1-13-4.41l-.36-.15c-6.31-2.67-12-6.27-18.42-8.51A35,35,0,0,0,7.56,64.81c-.42-.59-.83-1.2-1.22-1.83-.13-.19-.26-.4-.38-.6s-.31-.51-.45-.77c-.26-.44-.51-.89-.76-1.36L4.62,60a39.29,39.29,0,0,1,21.69.11A47.3,47.3,0,0,1,33.37,63a40.74,40.74,0,0,1,.5-7.24c2-12.3,9.36-21.08,16.62-26.93-.58-.1-1.15-.18-1.72-.24h0a24.57,24.57,0,0,0-2.7-.15H45.2c-8.48.28-14.37,4.69-21.83,10.27-2.52,1.88-5.11,3.82-8,5.74A103.23,103.23,0,0,1,1.53,52.22c-.14-.49-.26-1-.38-1.48s-.24-1-.33-1.5c0-.21-.09-.41-.13-.62a101.09,101.09,0,0,0,13-7.32c11.52-7.67,18.93-16.1,31.4-16.52H46a29.6,29.6,0,0,1,3,.16,28.74,28.74,0,0,1,3.44.56q.53.11,1,.24c.62.16,1.2.33,1.77.51l.19.06c.37.12.74.24,1.09.37s.81.29,1.19.45l.21.08a1.47,1.47,0,0,1,.63,2.25.94.94,0,0,1-.09.12l-.15.17c-.33.37-.69.78-1.06,1.26-.08.09-.15.19-.23.3s-.35.45-.51.69l-.33.46a25.86,25.86,0,0,0-1.45,2.32c-.12.22-.25.46-.37.7s-.39.79-.57,1.19-.5,1.13-.72,1.73c-.15.4-.29.82-.42,1.24s-.23.77-.34,1.18a24.66,24.66,0,0,0-.66,3.8,29,29,0,0,0-.11,3.4c.13,4.26,1.2,8.8,3.42,11.47C58.46,63.62,66,64.71,75.9,62.76Z" fill="#fff"/></g></g></svg>